# AST/ASF file generated using VICON BodyLanguage
# -----------------------------------------------
:version 1.10
:name VICON
:units
  mass 1.0
  length 0.45
  angle deg
:documentation
   .ast/.asf automatically generated from VICON data using
   VICON BodyBuilder and BodyLanguage model FoxedUp or BRILLIANT.MOD
:root
   order TX TY TZ RX RY RZ
   axis XYZ
   position 0 0 0  
   orientation 0 0 0 
:bonedata
  begin
     id 1 
     name lhipjoint
     direction 0.677091 -0.635792 0.370561 
     length 2.74323 
     axis 0 0 0  XYZ
  end
  begin
     id 2 
     name lfemur
     direction 0.34202 -0.939693 0  
     length 7.44995  
     axis 0 0 20  XYZ
    dof rx ry rz
    limits (-160.0 20.0)
           (-70.0 70.0)
           (-60.0 70.0)
  end
  begin
     id 3 
     name ltibia
     direction 0.34202 -0.939693 0   
     length 7.34467   
     axis 0 0 20   XYZ
    dof rx
    limits (-10.0 170.0)
  end
  begin
     id 4 
     name lfoot
     direction 0.101953 -0.280114 0.954537   
     length 1.72105   
     axis -90 7.62852e-016 20   XYZ
    dof rx rz
    limits (-45.0 90.0)
           (-70.0 20.0)
  end
  begin
     id 5 
     name ltoes
     direction 1.53537e-011 -4.21915e-011 1   
     length 0.865872   
     axis -90 7.62852e-016 20   XYZ
    dof rx
    limits (-90.0 20.0)
  end
  begin
     id 6 
     name rhipjoint
     direction -0.695735 -0.620586 0.361699   
     length 2.81045  
     axis 0 0 0  XYZ 
  end
  begin
     id 7 
     name rfemur
     direction -0.34202 -0.939693 0   
     length 7.29387   
     axis 0 0 -20   XYZ
    dof rx ry rz
    limits (-160.0 20.0)
           (-70.0 70.0)
           (-70.0 60.0)
  end
  begin
     id 8 
     name rtibia
     direction -0.34202 -0.939693 0   
     length 7.44935   
     axis 0 0 -20   XYZ
    dof rx
    limits (-10.0 170.0)
 end
 begin
     id 9 
     name rfoot
     direction -0.104163 -0.286184 0.952496   
     length 1.77731  
     axis -90 -7.62852e-016 -20   XYZ
    dof rx rz
    limits (-45.0 90.0)
           (-20.0 70.0)
  end
  begin
     id 10 
     name rtoes
     direction -1.5355e-011 -4.21888e-011 1   
     length 0.892424   
     axis -90 -7.62852e-016 -20   XYZ
    dof rx
    limits (-90.0 20.0)
  end
  begin
     id 11 
     name lowerback
     direction 0.0100202 0.997226 -0.0737589   
     length 2.16892   
     axis 0 0 0   XYZ
    dof rx ry rz
    limits (-20.0 45.0)
           (-30.0 30.0)
           (-30.0 30.0)
  end
  begin
     id 12 
     name upperback
     direction 0.00432398 0.999988 -0.00215019   
     length 2.17326   
     axis 0 0 0   XYZ
    dof rx ry rz
    limits (-20.0 45.0)
           (-30.0 30.0)
           (-30.0 30.0)
  end
  begin
     id 13 
     name thorax
     direction -0.00195047 0.999485 0.0320434   
     length 2.18139   
     axis 0 0 0   XYZ
    dof rx ry rz
    limits (-20.0 45.0)
           (-30.0 30.0)
           (-30.0 30.0)
  end
  begin
     id 14 
     name lowerneck
     direction 0.00782762 0.986241 0.165128   
     length 1.88415   
     axis 0 0 0   XYZ
    dof rx ry rz
    limits (-20.0 45.0)
           (-30.0 30.0)
           (-30.0 30.0)
  end
  begin
     id 15 
     name upperneck
     direction 0.00988667 0.981098 -0.193258   
     length 1.9242   
     axis 0 0 0   XYZ
    dof rx ry rz
    limits (-20.0 45.0)
           (-30.0 30.0)
           (-30.0 30.0)
  end
  begin
     id 16
     name head
     direction 0.00252199 0.996513 -0.0833958  
     length 1.93887  
     axis 0 0 0   XYZ
    dof rx ry rz
    limits (-20.0 45.0)
           (-30.0 30.0)
           (-30.0 30.0)
  end
  begin
     id 17 
     name lclavicle
     direction 0.929492 0.368193 -0.0218667  
     length 3.5955  
     axis 0 0 0   XYZ
    dof ry rz
    limits (-20.0 10.0)
           (0.0 20.0)
  end
  begin
     id 18 
     name lhumerus
     direction 1 -4.48972e-011 1.41911e-027   
     length 5.2795   
     axis 180 -30 -90   XYZ
    dof rx ry rz
    limits (-60.0 90.0)
           (-90.0 90.0)
           (-90.0 90.0)
  end
  begin
     id 19
     name lradius
     direction 1 -4.48963e-011 7.05772e-027   
     length 3.53504   
     axis 180 -30 -90   XYZ
    dof rx
    limits (-10.0 170.0)
  end
  begin
     id 20
     name lwrist
     direction 1 -4.48957e-011 9.54866e-027   
     length 1.76752   
     axis -7.69462e-015 90 90   XYZ
    dof ry
    limits (-180.0 0.0)
 end
  begin
     id 21 
     name lhand
     direction 1 -4.48979e-011 1.90973e-026   
     length 0.667948   
     axis -1.21857e-014 90 90   XYZ
    dof rx rz
    limits (-90.0 90.0)
           (-45.0 45.0)
  end
  begin
     id 22 
     name lfingers
     direction 1 -4.48987e-011 3.81946e-026   
     length 0.538517   
     axis -2.43714e-014 90 90   XYZ
    dof rx
    limits (0.0 90.0)
  end
  begin
     id 23
     name lthumb
     direction 0.707107 -6.34962e-011 0.707107   
     length 0.773206   
     axis -90 45 2.85299e-015   XYZ
    dof rx rz
    limits (-45.0 45.0)
           (-45.0 45.0)
  end
  begin
     id 24 
     name rclavicle
     direction -0.898763 0.414256 -0.143584   
     length 3.5176  
     axis 0 0 0   XYZ 
    dof ry rz
    limits (-10.0 20.0)
           (-20.0 0.0)
  end
  begin
     id 25 
     name rhumerus
     direction -1 -4.48971e-011 1.129e-027  
     length 5.25035   
     axis 180 30 90   XYZ
    dof rx ry rz
    limits (-90.0 60.0)
           (-90.0 90.0)
           (-90.0 90.0)
  end
  begin
     id 26 
     name rradius
     direction -1 -4.48955e-011 6.34664e-027   
     length 3.58884   
     axis 180 30 90   XYZ
    dof rx
    limits (-10.0 170.0)
  end
  begin
     id 27 
     name rwrist
     direction -1 -4.48966e-011 9.54866e-027   
     length 1.79442   
     axis -7.69462e-015 -90 -90   XYZ
    dof ry
    limits (-180.0 0.0)
  end
  begin
     id 28
     name rhand
     direction -1 -4.48973e-011 1.90973e-026   
     length 0.779235   
     axis -1.21857e-014 -90 -90   XYZ
    dof rx rz
    limits (-90.0 90.0)
           (-45.0 45.0)
  end
  begin
     id 29
     name rfingers
     direction -1 -4.48984e-011 3.81946e-026   
     length 0.62824   
     axis -2.43714e-014 -90 -90   XYZ
    dof rx
    limits (0.0 90.0)
  end
  begin
     id 30
     name rthumb
     direction -0.707107 -6.34968e-011 0.707107   
     length 0.90203   
     axis -90 -45 -2.85299e-015   XYZ
    dof rx rz
    limits (-45.0 45.0)
           (-45.0 45.0)
  end
:hierarchy
  begin
    root lhipjoint rhipjoint lowerback
    lhipjoint lfemur
    lfemur ltibia
    ltibia lfoot
    lfoot ltoes
    rhipjoint rfemur
    rfemur rtibia
    rtibia rfoot
    rfoot rtoes
    lowerback upperback
    upperback thorax
    thorax lowerneck lclavicle rclavicle
    lowerneck upperneck
    upperneck head
    lclavicle lhumerus
    lhumerus lradius
    lradius lwrist
    lwrist lhand lthumb
    lhand lfingers
    rclavicle rhumerus
    rhumerus rradius
    rradius rwrist
    rwrist rhand rthumb
    rhand rfingers
  end

#!OML:ASF I:\Random Stuff\random\construction\7_22_03\Session 2\subj1.ASF
:FULLY-SPECIFIED
:DEGREES
812
root 4.66186 17.3811 -10.3531 37.1816 -11.3992 -9.62371
lowerback 34.9345 -1.09148 -5.83071
upperback 12.5748 -4.0146 -8.58892
thorax -4.09191 -1.85741 -4.59082
lowerneck -13.2056 -2.6518 -11.3318
upperneck 30.9548 0.492323 -3.64763
head 12.6127 -1.53159 0.617718
rclavicle -2.54444e-014 -7.39479e-014
rhumerus -26.8485 15.6968 -49.8757
rradius 128.002
rwrist 24.9248
rhand -16.915 21.0563
rfingers 7.12502
rthumb 9.31741 -8.71783
lclavicle -2.54444e-014 -7.39479e-014
lhumerus 35.0123 -57.0907 59.3968
lradius 86.0869
lwrist 92.454
lhand -14.773 49.542
lfingers 7.12502
lthumb -168.616 1339.21
rfemur -51.203 -6.36199 40.7816
rtibia 16.7837
rfoot -2.98773 7.00616
rtoes -15.1824
lfemur -55.2723 3.75805 1.84224
ltibia 36.4502
lfoot -13.1344 5.86826
ltoes -33.5532
813
root 4.66058 17.3819 -10.3501 37.1008 -11.3341 -9.60039
lowerback 35.0331 -1.12434 -5.8354
upperback 12.5881 -4.0615 -8.57668
thorax -4.11294 -1.87856 -4.55819
lowerneck -13.1731 -2.628 -11.3637
upperneck 30.9594 0.513967 -3.60254
head 12.6064 -1.5207 0.643638
rclavicle 2.54444e-014 7.27552e-014
rhumerus -27.0851 15.6772 -50.1051
rradius 128.196
rwrist 25.317
rhand -16.1702 21.0108
rfingers 7.12502
rthumb 10.036 -8.72991
lclavicle 2.54444e-014 7.27552e-014
lhumerus 35.0458 -57.0257 59.3162
lradius 86.2434
lwrist 92.267
lhand -14.8666 49.9672
lfingers 7.12502
lthumb -168.707 1339.64
rfemur -51.1551 -6.43288 40.7698
rtibia 16.8457
rfoot -3.03675 6.99254
rtoes -15.3632
lfemur -55.2046 3.68789 1.84398
ltibia 36.4296
lfoot -13.1717 5.7702
ltoes -33.341
814
root 4.65848 17.3815 -10.3482 37.0465 -11.2712 -9.59917
lowerback 35.1128 -1.15028 -5.83143
upperback 12.5963 -4.09619 -8.56344
thorax -4.13284 -1.89403 -4.53328
lowerneck -13.1169 -2.56224 -11.3806
upperneck 30.9087 0.559982 -3.49004
head 12.5687 -1.4868 0.697229
rclavicle -5.08889e-014 3.57812e-015
rhumerus -27.2541 15.6811 -50.3287
rradius 128.319
rwrist 25.64
rhand -15.7385 21.007
rfingers 7.12502
rthumb 10.4524 -8.71317
lclavicle -5.08889e-014 3.57812e-015
lhumerus 35.1024 -57.0086 59.2031
lradius 86.4362
lwrist 92.3522
lhand -15.0893 50.1556
lfingers 7.12502
lthumb -168.921 1339.84
rfemur -51.1202 -6.45133 40.7591
rtibia 16.8996
rfoot -3.0545 6.9355
rtoes -15.5011
lfemur -55.1694 3.6795 1.84323
ltibia 36.4228
lfoot -13.1629 5.6664
ltoes -33.2675
815
root 4.65569 17.3808 -10.3468 37.0379 -11.2308 -9.62227
lowerback 35.1192 -1.19391 -5.83601
upperback 12.6083 -4.15014 -8.57723
thorax -4.12571 -1.91924 -4.52712
lowerneck -13.1844 -2.55563 -11.3601
upperneck 31.0333 0.580713 -3.48572
head 12.6332 -1.48294 0.696533
rclavicle -8.5875e-014 -1.19271e-013
rhumerus -27.3152 15.7452 -50.5536
rradius 128.372
rwrist 26.2502
rhand -15.6812 21.1554
rfingers 7.12502
rthumb 10.5077 -8.56196
lclavicle -8.5875e-014 -1.19271e-013
lhumerus 35.0388 -56.9446 59.1543
lradius 86.5483
lwrist 92.5285
lhand -15.1947 50.2169
lfingers 7.12502
lthumb -169.023 1339.91
rfemur -51.1181 -6.44521 40.787
rtibia 16.9389
rfoot -3.06729 6.90022
rtoes -15.5889
lfemur -55.1772 3.72294 1.85487
ltibia 36.4492
lfoot -13.1482 5.6351
ltoes -33.4738
816
root 4.65281 17.3788 -10.3454 37.0635 -11.215 -9.65179
lowerback 35.0712 -1.24627 -5.85451
upperback 12.6104 -4.21646 -8.60897
thorax -4.1113 -1.95071 -4.52909
lowerneck -13.2051 -2.53183 -11.4065
upperneck 31.074 0.606871 -3.41019
head 12.6526 -1.47108 0.73632
rclavicle 6.36111e-015 5.24792e-014
rhumerus -27.2632 15.8689 -50.726
rradius 128.297
rwrist 27.1327
rhand -16.0086 21.2977
rfingers 7.12502
rthumb 10.1918 -8.4354
lclavicle 6.36111e-015 5.24792e-014
lhumerus 34.9011 -56.8239 59.1846
lradius 86.7689
lwrist 92.0744
lhand -15.2432 51.0455
lfingers 7.12502
lthumb -169.07 1340.74
rfemur -51.1255 -6.40477 40.8107
rtibia 16.9468
rfoot -3.09412 6.8512
rtoes -15.7452
lfemur -55.2245 3.7786 1.87438
ltibia 36.5235
lfoot -13.2094 5.68288
ltoes -33.7941
817
root 4.64741 17.3746 -10.3479 37.2228 -11.2693 -9.74516
lowerback 34.8746 -1.23729 -5.92037
upperback 12.5862 -4.21162 -8.62634
thorax -4.06351 -1.95218 -4.51765
lowerneck -13.1892 -2.49361 -11.5144
upperneck 31.0419 0.631954 -3.25021
head 12.6329 -1.45207 0.819694
rclavicle 9.54166e-015 1.19271e-014
rhumerus -27.1585 15.9976 -50.8598
rradius 128.1
rwrist 27.9621
rhand -16.6051 21.515
rfingers 7.12502
rthumb 9.61635 -8.24549
lclavicle 9.54166e-015 1.19271e-014
lhumerus 34.8259 -56.7082 59.2549
lradius 87.0905
lwrist 91.0426
lhand -15.2916 52.6139
lfingers 7.12502
lthumb -169.116 1342.31
rfemur -51.221 -6.2096 40.8686
rtibia 16.9259
rfoot -3.06192 6.81023
rtoes -15.6829
lfemur -55.3839 4.01592 1.89259
ltibia 36.6336
lfoot -13.251 5.61461
ltoes -33.8891
818
root 4.63938 17.3688 -10.3539 37.5176 -11.3728 -9.91719
lowerback 34.5409 -1.15804 -6.01934
upperback 12.5369 -4.119 -8.61113
thorax -3.98297 -1.91581 -4.48612
lowerneck -13.1665 -2.46011 -11.5998
upperneck 31.0041 0.643983 -3.0915
head 12.6095 -1.4356 0.897041
rclavicle -4.13472e-014 -6.83819e-014
rhumerus -27.0588 16.1053 -50.9751
rradius 127.851
rwrist 28.4558
rhand -17.2613 22.0447
rfingers 7.12502
rthumb 8.98318 -7.74403
lclavicle -4.13472e-014 -6.83819e-014
lhumerus 34.869 -56.7282 59.2465
lradius 87.2415
lwrist 90.8701
lhand -15.6406 53.2784
lfingers 7.12502
lthumb -169.453 1342.99
rfemur -51.4262 -5.91582 41.0339
rtibia 16.8979
rfoot -3.01365 6.85322
rtoes -15.9112
lfemur -55.6474 4.44244 1.92656
ltibia 36.7562
lfoot -13.2649 5.42598
ltoes -33.7681
819
root 4.63416 17.3648 -10.3572 37.7125 -11.4111 -10.0385
lowerback 34.3284 -1.10544 -6.05407
upperback 12.5045 -4.04725 -8.58881
thorax -3.93318 -1.8862 -4.47142
lowerneck -13.142 -2.46578 -11.5808
upperneck 30.9986 0.622866 -3.0783
head 12.6023 -1.4404 0.896157
rclavicle 9.22361e-014 1.78906e-014
rhumerus -26.9085 16.1711 -51.0198
rradius 127.567
rwrist 28.6938
rhand -17.7231 22.6111
rfingers 7.12502
rthumb 8.53757 -7.19635
lclavicle 9.22361e-014 1.78906e-014
lhumerus 34.9357 -56.8543 59.1964
lradius 87.264
lwrist 91.3162
lhand -15.9842 53.0916
lfingers 7.12502
lthumb -169.785 1342.82
rfemur -51.5661 -5.75061 41.1793
rtibia 16.8759
rfoot -3.01078 6.88302
rtoes -16.2835
lfemur -55.8398 4.7031 1.9764
ltibia 36.868
lfoot -13.311 5.35604
ltoes -33.8361
820
root 4.63283 17.3634 -10.3577 37.7661 -11.3994 -10.0684
lowerback 34.2631 -1.09667 -6.03661
upperback 12.501 -4.02492 -8.58465
thorax -3.91359 -1.87622 -4.48458
lowerneck -13.1264 -2.48519 -11.509
upperneck 31.0083 0.59504 -3.13965
head 12.6042 -1.45185 0.856756
rclavicle 9.54166e-015 -4.29375e-014
rhumerus -26.6999 16.2252 -51.0192
rradius 127.286
rwrist 28.7723
rhand -17.9932 22.6568
rfingers 7.12502
rthumb 8.27685 -7.16104
lclavicle 9.54166e-015 -4.29375e-014
lhumerus 34.8973 -56.9686 59.2452
lradius 87.351
lwrist 91.6739
lhand -16.1927 52.9577
lfingers 7.12502
lthumb -169.986 1342.7
rfemur -51.6086 -5.70878 41.2151
rtibia 16.8774
rfoot -3.01559 6.85917
rtoes -16.2478
lfemur -55.9235 4.75701 2.00174
ltibia 36.9468
lfoot -13.3136 5.37221
ltoes -34.1182
821
root 4.63261 17.3618 -10.3574 37.8092 -11.4051 -10.0654
lowerback 34.2034 -1.08144 -6.05354
upperback 12.498 -4.00598 -8.58623
thorax -3.89301 -1.86829 -4.48475
lowerneck -13.0775 -2.50338 -11.4735
upperneck 30.978 0.55616 -3.15509
head 12.5827 -1.46413 0.840013
rclavicle 1.27222e-014 4.05521e-014
rhumerus -26.5159 16.3403 -51.0312
rradius 127.127
rwrist 28.5425
rhand -17.9766 22.0866
rfingers 7.12502
rthumb 8.29293 -7.73067
lclavicle 1.27222e-014 4.05521e-014
lhumerus 34.7336 -57.1016 59.378
lradius 87.4667
lwrist 92.1858
lhand -16.4667 52.4448
lfingers 7.12502
lthumb -170.25 1342.2
rfemur -51.6666 -5.68751 41.2106
rtibia 16.9152
rfoot -3.02628 6.86468
rtoes -16.0643
lfemur -55.983 4.77817 2.00062
ltibia 36.9819
lfoot -13.323 5.37086
ltoes -34.0291
822
root 4.63207 17.3611 -10.3567 37.856 -11.4209 -10.0634
lowerback 34.1553 -1.06268 -6.08995
upperback 12.4898 -3.99093 -8.59457
thorax -3.88135 -1.86219 -4.4803
lowerneck -13.0071 -2.5343 -11.4536
upperneck 30.9165 0.503143 -3.18484
head 12.5451 -1.48401 0.8188
rclavicle 4.45278e-014 8.82604e-014
rhumerus -26.3728 16.5601 -51.068
rradius 127.091
rwrist 27.9868
rhand -18.1754 21.916
rfingers 7.12502
rthumb 8.10103 -7.90873
lclavicle 4.45278e-014 8.82604e-014
lhumerus 34.539 -57.2344 59.5589
lradius 87.5042
lwrist 92.7821
lhand -16.7586 51.7332
lfingers 7.12502
lthumb -170.532 1341.5
rfemur -51.738 -5.66269 41.2099
rtibia 16.9647
rfoot -3.03298 6.87047
rtoes -15.7887
lfemur -56.028 4.8197 1.98274
ltibia 36.9882
lfoot -13.3621 5.29567
ltoes -33.6337
823
root 4.63129 17.3611 -10.3562 37.8993 -11.4386 -10.0488
lowerback 34.1275 -1.0379 -6.11222
upperback 12.4809 -3.967 -8.60821
thorax -3.87922 -1.85103 -4.49142
lowerneck -13.0166 -2.5801 -11.457
upperneck 30.9541 0.451872 -3.2025
head 12.5658 -1.50994 0.804927
rclavicle -6.99722e-014 -1.90833e-014
rhumerus -26.2574 16.7827 -51.0834
rradius 127.091
rwrist 27.393
rhand -18.2781 21.9006
rfingers 7.12502
rthumb 8.00195 -7.92796
lclavicle -6.99722e-014 -1.90833e-014
lhumerus 34.3681 -57.3463 59.8076
lradius 87.3908
lwrist 93.7373
lhand -17.1654 50.9798
lfingers 7.12502
lthumb -170.924 1340.76
rfemur -51.8063 -5.6383 41.1971
rtibia 17.0025
rfoot -3.02784 6.85799
rtoes -15.7041
lfemur -56.0701 4.84711 1.94631
ltibia 36.9859
lfoot -13.3464 5.24893
ltoes -33.7308
824
root 4.63074 17.3616 -10.3551 37.944 -11.4516 -10.0212
lowerback 34.0955 -1.0276 -6.13272
upperback 12.4743 -3.95927 -8.62417
thorax -3.8741 -1.84744 -4.50059
lowerneck -13.0836 -2.58494 -11.4925
upperneck 31.0336 0.458558 -3.16238
head 12.6127 -1.51077 0.825991
rclavicle -7.95139e-014 -1.35174e-014
rhumerus -26.1088 16.9619 -51.0794
rradius 127.049
rwrist 26.916
rhand -18.5011 21.6581
rfingers 7.12502
rthumb 7.78671 -8.17855
lclavicle -7.95139e-014 -1.35174e-014
lhumerus 34.1249 -57.3904 60.1016
lradius 87.1966
lwrist 94.9938
lhand -17.564 49.9098
lfingers 7.12502
lthumb -171.309 1339.71
rfemur -51.8673 -5.62558 41.1708
rtibia 17.0217
rfoot -3.02949 6.85064
rtoes -15.8251
lfemur -56.1175 4.85039 1.91069
ltibia 36.9821
lfoot -13.3487 5.2979
ltoes -33.9925
825
root 4.63017 17.3629 -10.3537 37.97 -11.4426 -10.0274
lowerback 34.0751 -1.03548 -6.13191
upperback 12.48 -3.96599 -8.62752
thorax -3.8612 -1.85084 -4.50278
lowerneck -13.1106 -2.54984 -11.4643
upperneck 31.0464 0.526824 -3.23323
head 12.6216 -1.48793 0.803542
rclavicle -2.22639e-014 7.99114e-014
rhumerus -25.9342 17.1146 -51.0549
rradius 126.973
rwrist 26.2362
rhand -18.8497 21.064
rfingers 7.12502
rthumb 7.45028 -8.78483
lclavicle -2.22639e-014 7.99114e-014
lhumerus 33.828 -57.3544 60.441
lradius 87.0912
lwrist 95.3929
lhand -17.5192 49.3026
lfingers 7.12502
lthumb -171.266 1339.1
rfemur -51.885 -5.62529 41.1843
rtibia 17.0172
rfoot -3.02886 6.85329
rtoes -15.8299
lfemur -56.1355 4.85498 1.93292
ltibia 36.9812
lfoot -13.3728 5.30113
ltoes -33.7213
